# xmcd
#
# Track frame offsets: 
#        150
#        11240
#        23366
#        33628
#        45672
#        58021
#        69886
#        82685
#        94370
#        106360
#        117986
#        131367
#        145019
#        155948
#        168314
#        180702
#        193653
#        205051
#        216537
#        228763
#
# Disc length: 3191 seconds
#
# Revision: 2
# Processed by: cddbd v1.5.2PL0 Copyright (c) Steve Scherf et al.
# Submitted via: ExactAudioCopy v1.1
#
DISCID=110c7514
DTITLE=Various Artist - Rhythm and Blues Goes Rock 'N' Roll - CD01
DYEAR=2002
DGENRE=Blues
TTITLE0=Mabel Scott - Fine Fine Baby
TTITLE1=Roy Milton - Milton's Boogie
TTITLE2=Lil Armstrong - Rock It
TTITLE3=Johnny Griffin - Joe's Boogie
TTITLE4=Lloyd Glenn - Brazos Bottom
TTITLE5=Jesse Thomas - It's You I'm Thinking Of
TTITLE6=Wynonie Harris - Teardrops From My Eyes
TTITLE7=Annisteen Allen - Bongo Boogie
TTITLE8=Joe Liggins - Doodle Doo Da Deet
TTITLE9=J. T. Brown - Sax-Ony Boogie
TTITLE10=Eddie Boyd - Kilroy Won't Be Back
TTITLE11=Washboard Sam - I Just Couldn't Help It
TTITLE12=Booker T. Washington - St. Louis Boogie
TTITLE13=Eddie Boyd - Jimmy's Jump
TTITLE14=J. T. Brown - Round House Boogie
TTITLE15=Lowell Fulson - Cold Hearted Woman
TTITLE16=Joe Turner - Wine-O-Baby
TTITLE17=Sam Price - The Dirty Dozens
TTITLE18=Jimmy McCracklin - I Found That Woman
TTITLE19=Eddie Vinson - Gonna Send You Back
EXTD=
EXTT0=
EXTT1=
EXTT2=
EXTT3=
EXTT4=
EXTT5=
EXTT6=
EXTT7=
EXTT8=
EXTT9=
EXTT10=
EXTT11=
EXTT12=
EXTT13=
EXTT14=
EXTT15=
EXTT16=
EXTT17=
EXTT18=
EXTT19=
PLAYORDER=
